# xmcd
#
# Track frame offsets: 
#        150
#        16525
#        37753
#        58274
#        81192
#        100166
#        117247
#        139384
#        157824
#        178049
#        199999
#
# Disc length: 2855 seconds
#
# Revision: 1
# Processed by: cddbd v1.5.2PL0 Copyright (c) Steve Scherf et al.
# Submitted via: ExactAudioCopy v1.0b3
#
DISCID=880b250b
DTITLE=Tony Spinner - Chicks and guitars
DYEAR=2005
DGENRE=Blues
TTITLE0=Turn it up
TTITLE1=As good as it gets
TTITLE2=Faith Hope and love
TTITLE3=Never meant to hurt you
TTITLE4=Tied up in love
TTITLE5=Lovesick
TTITLE6=Politics man
TTITLE7=Love don't take time
TTITLE8=Bourbon and a fast car
TTITLE9=Caledonia
TTITLE10=You lied to me
EXTD=
EXTT0=
EXTT1=
EXTT2=
EXTT3=
EXTT4=
EXTT5=
EXTT6=
EXTT7=
EXTT8=
EXTT9=
EXTT10=
PLAYORDER=
